# xmcd
#
# Track frame offsets:
#	150
#	14636
#	30242
#	39463
#	54580
#	72445
#	89757
#	107002
#	119688
#	134895
#
# Disc length: 1921 seconds
# Revision: 0
# Processed by: cddbd v1.5.2PL0 Copyright (c) Steve Scherf et al.
# Submitted via: dBpowerAMP V12.0
#
DISCID=94077f0a
DTITLE=Dillards, The - Tribute to the American Duck [Poppy] (L)
DYEAR=1973
DGENRE=Country
TTITLE0=Music is Music
TTITLE1=Caney Creek
TTITLE2=Dooley
TTITLE3=Love Has Gone Away
TTITLE4=You've Got to be Strong
TTITLE5=Carry Me Off
TTITLE6=Smile For Me
TTITLE7=Hot Rod Banjo
TTITLE8=Daddy Was a Mover
TTITLE9=What's Time to a Hog?
EXTD=
EXTT0=
EXTT1=
EXTT2=
EXTT3=
EXTT4=
EXTT5=
EXTT6=
EXTT7=
EXTT8=
EXTT9=
PLAYORDER=
